<svg id="Layer_1" viewBox="0 0 24 24" xmlns="http://www.w3.org/2000/svg" data-name="Layer 1"><path d="m14.75 3.715c0-.671.504-1.215 1.125-1.215s1.125.454 1.125 1.125c0-.671.504-1.125 1.125-1.125s1.125.544 1.125 1.215c0 1.272-2.25 2.835-2.25 2.835s-2.25-1.562-2.25-2.835zm-11.78-1.454v4.478l4.03-2.239zm20.211 9.394c-.497-.452-1.143-.679-1.809-.652-.67.032-1.288.322-1.739.818l-3.742 4.112c-.312-1.111-1.323-1.933-2.533-1.933h-10.858c-1.378 0-2.5 1.121-2.5 2.5v7.5h1v-7.5c0-.827.673-1.5 1.5-1.5h10.858c.905 0 1.642.737 1.642 1.643 0 .812-.606 1.511-1.404 1.624l-5.661.737.129.992 5.667-.738c1.015-.145 1.826-.871 2.132-1.808l4.509-4.956c.272-.298.644-.473 1.047-.492.399-.017.79.121 1.088.393.609.555.658 1.507.109 2.123l-8.45 9.483h1.341l7.857-8.817c.911-1.023.829-2.605-.183-3.528zm-17.323-2.655h-5.858v-7c0-.535.208-1.037.586-1.415s.879-.585 1.413-.585h.001l6 .002c1.103 0 2 .898 2 2.001v7.858c.013.618-.359 1.143-1.145 1.143-.246 0-.49-.08-.694-.237l-2.302-1.767zm-4.858-1h5.198l2.572 1.974c.107.069.229.029.229-.113v-7.858c.001-.552-.447-1-.999-1.001l-6-.002c-.267 0-.517.104-.706.292-.189.189-.293.44-.293.707v6zm11.001 1.861v-7.858c-.001-1.103.896-2.001 1.999-2.001l6-.002h.001c.534 0 1.036.208 1.413.585s.586.88.586 1.414v7h-5.858l-2.303 1.767c-.204.157-.448.237-.694.237-.735 0-1.158-.525-1.144-1.143zm.999-7.858v7.858c.001.128.123.183.23.113l2.572-1.974h5.198v-6c0-.267-.104-.518-.293-.707-.189-.188-.439-.292-.706-.292l-6 .002c-.551 0-1 .449-1 1.001z"/></svg>